<?xml version="1.0" standalone="no"?><!DOCTYPE svg PUBLIC "-//W3C//DTD SVG 1.1//EN" "http://www.w3.org/Graphics/SVG/1.1/DTD/svg11.dtd"><svg t="1638412333800" class="icon" viewBox="0 0 1027 1024" version="1.1" xmlns="http://www.w3.org/2000/svg" p-id="3219" xmlns:xlink="http://www.w3.org/1999/xlink" width="200.5859375" height="200"><defs><style type="text/css"></style></defs><path d="M371.2 54.4C172.8 54.4 6.4 227.2 6.4 441.6c0 108.8 41.6 204.8 108.8 275.2l236.8 249.6c12.8 12.8 35.2 12.8 48 0l236.8-249.6c67.2-70.4 108.8-169.6 108.8-275.2-6.4-214.4-172.8-387.2-374.4-387.2z m0 508.8c-80 0-144-64-144-144s64-144 144-144 144 64 144 144-64 144-144 144zM707.2 979.2h-256l64-64h128l64 64z" fill="#666666" p-id="3220"></path><path d="M1027.2 646.4c0 67.2-25.6 128-70.4 172.8l-153.6 153.6c-9.6 9.6-22.4 9.6-32 0l-153.6-156.8c-3.2-3.2-3.2-3.2-3.2-6.4l64-67.2c16-16 28.8-32 41.6-48 16 19.2 41.6 32 70.4 32 51.2 0 92.8-41.6 92.8-89.6 0-48-41.6-89.6-92.8-89.6 9.6-38.4 16-76.8 16-115.2v-28.8c121.6 9.6 220.8 112 220.8 243.2z" fill="#666666" p-id="3221"></path></svg>